<mxfile host="app.diagrams.net" modified="2020-12-16T11:08:11.479Z" agent="5.0 (Windows NT 10.0; WOW64) AppleWebKit/537.36 (KHTML, like Gecko) Chrome/72.0.3626.121 Safari/537.36" etag="1fUvwGbwLCsJKRrdpCJS" version="14.0.1" type="github">
  <diagram id="cE4s3qr2dzPUc8DZUsEM" name="第 1 页">
    <mxGraphModel dx="1422" dy="762" grid="1" gridSize="10" guides="1" tooltips="1" connect="1" arrows="1" fold="1" page="1" pageScale="1" pageWidth="827" pageHeight="1169" math="0" shadow="0">
      <root>
        <mxCell id="0" />
        <mxCell id="1" parent="0" />
        <mxCell id="cLgK5z_RN-ABzNowCWoc-12" style="edgeStyle=orthogonalEdgeStyle;rounded=0;orthogonalLoop=1;jettySize=auto;html=1;exitX=1;exitY=0.5;exitDx=0;exitDy=0;entryX=0;entryY=0.5;entryDx=0;entryDy=0;" edge="1" parent="1" source="cLgK5z_RN-ABzNowCWoc-1" target="cLgK5z_RN-ABzNowCWoc-5">
          <mxGeometry relative="1" as="geometry" />
        </mxCell>
        <mxCell id="cLgK5z_RN-ABzNowCWoc-13" style="edgeStyle=orthogonalEdgeStyle;rounded=0;orthogonalLoop=1;jettySize=auto;html=1;exitX=1;exitY=0.5;exitDx=0;exitDy=0;entryX=0;entryY=0.5;entryDx=0;entryDy=0;" edge="1" parent="1" source="cLgK5z_RN-ABzNowCWoc-1" target="cLgK5z_RN-ABzNowCWoc-6">
          <mxGeometry relative="1" as="geometry" />
        </mxCell>
        <mxCell id="cLgK5z_RN-ABzNowCWoc-1" value="loginType=1(QQ)&lt;br&gt;普通QQ登录" style="rounded=1;whiteSpace=wrap;html=1;fillColor=#e1d5e7;strokeColor=#9673a6;" vertex="1" parent="1">
          <mxGeometry x="70" y="120" width="150" height="60" as="geometry" />
        </mxCell>
        <mxCell id="cLgK5z_RN-ABzNowCWoc-2" value="loginType=2(WX)&lt;br&gt;微信登录" style="rounded=1;whiteSpace=wrap;html=1;fillColor=#e1d5e7;strokeColor=#9673a6;" vertex="1" parent="1">
          <mxGeometry x="70" y="270" width="150" height="60" as="geometry" />
        </mxCell>
        <mxCell id="cLgK5z_RN-ABzNowCWoc-3" value="loginType=2(QC)&lt;br&gt;QQ与QQ账号主体互联登录" style="rounded=1;whiteSpace=wrap;html=1;fillColor=#e1d5e7;strokeColor=#9673a6;" vertex="1" parent="1">
          <mxGeometry x="70" y="420" width="150" height="60" as="geometry" />
        </mxCell>
        <mxCell id="cLgK5z_RN-ABzNowCWoc-9" style="edgeStyle=orthogonalEdgeStyle;rounded=0;orthogonalLoop=1;jettySize=auto;html=1;exitX=1;exitY=0.5;exitDx=0;exitDy=0;" edge="1" parent="1" source="cLgK5z_RN-ABzNowCWoc-4" target="cLgK5z_RN-ABzNowCWoc-7">
          <mxGeometry relative="1" as="geometry">
            <Array as="points">
              <mxPoint x="600" y="150" />
              <mxPoint x="600" y="150" />
            </Array>
          </mxGeometry>
        </mxCell>
        <mxCell id="cLgK5z_RN-ABzNowCWoc-4" value="QQ号" style="rounded=1;whiteSpace=wrap;html=1;fillColor=#f5f5f5;strokeColor=#666666;fontColor=#333333;" vertex="1" parent="1">
          <mxGeometry x="420" y="135" width="90" height="30" as="geometry" />
        </mxCell>
        <mxCell id="cLgK5z_RN-ABzNowCWoc-14" style="edgeStyle=orthogonalEdgeStyle;rounded=0;orthogonalLoop=1;jettySize=auto;html=1;exitX=1;exitY=0.5;exitDx=0;exitDy=0;entryX=0.5;entryY=0;entryDx=0;entryDy=0;" edge="1" parent="1" source="cLgK5z_RN-ABzNowCWoc-5" target="cLgK5z_RN-ABzNowCWoc-4">
          <mxGeometry relative="1" as="geometry" />
        </mxCell>
        <mxCell id="cLgK5z_RN-ABzNowCWoc-5" value="QQ+QQ账号主体AppId&lt;br&gt;此时openID不为空" style="text;html=1;strokeColor=none;fillColor=none;align=center;verticalAlign=middle;whiteSpace=wrap;rounded=0;" vertex="1" parent="1">
          <mxGeometry x="260" y="90" width="140" height="20" as="geometry" />
        </mxCell>
        <mxCell id="cLgK5z_RN-ABzNowCWoc-15" style="edgeStyle=orthogonalEdgeStyle;rounded=0;orthogonalLoop=1;jettySize=auto;html=1;exitX=1;exitY=0.5;exitDx=0;exitDy=0;" edge="1" parent="1" source="cLgK5z_RN-ABzNowCWoc-6" target="cLgK5z_RN-ABzNowCWoc-4">
          <mxGeometry relative="1" as="geometry" />
        </mxCell>
        <mxCell id="cLgK5z_RN-ABzNowCWoc-6" value="QQ登录&lt;br&gt;此时openID为空" style="text;html=1;strokeColor=none;fillColor=none;align=center;verticalAlign=middle;whiteSpace=wrap;rounded=0;" vertex="1" parent="1">
          <mxGeometry x="260" y="180" width="140" height="20" as="geometry" />
        </mxCell>
        <mxCell id="cLgK5z_RN-ABzNowCWoc-18" style="edgeStyle=orthogonalEdgeStyle;rounded=0;orthogonalLoop=1;jettySize=auto;html=1;exitX=1;exitY=0.5;exitDx=0;exitDy=0;entryX=0.5;entryY=0;entryDx=0;entryDy=0;" edge="1" parent="1" source="cLgK5z_RN-ABzNowCWoc-7" target="cLgK5z_RN-ABzNowCWoc-16">
          <mxGeometry relative="1" as="geometry" />
        </mxCell>
        <mxCell id="cLgK5z_RN-ABzNowCWoc-7" value="QQ体系OpenID" style="rounded=1;whiteSpace=wrap;html=1;" vertex="1" parent="1">
          <mxGeometry x="640" y="135" width="110" height="30" as="geometry" />
        </mxCell>
        <mxCell id="cLgK5z_RN-ABzNowCWoc-10" value="心悦QQ账号主体" style="text;html=1;strokeColor=none;fillColor=none;align=center;verticalAlign=middle;whiteSpace=wrap;rounded=0;" vertex="1" parent="1">
          <mxGeometry x="520" y="120" width="100" height="20" as="geometry" />
        </mxCell>
        <mxCell id="cLgK5z_RN-ABzNowCWoc-16" value="CommonID" style="rounded=1;whiteSpace=wrap;html=1;fillColor=#d5e8d4;strokeColor=#82b366;" vertex="1" parent="1">
          <mxGeometry x="830" y="285" width="90" height="30" as="geometry" />
        </mxCell>
        <mxCell id="cLgK5z_RN-ABzNowCWoc-17" value="CommonAppID" style="rounded=1;whiteSpace=wrap;html=1;fillColor=#d5e8d4;strokeColor=#82b366;" vertex="1" parent="1">
          <mxGeometry x="940" y="285" width="90" height="30" as="geometry" />
        </mxCell>
        <mxCell id="cLgK5z_RN-ABzNowCWoc-19" value="CommonKind" style="rounded=1;whiteSpace=wrap;html=1;fillColor=#d5e8d4;strokeColor=#82b366;" vertex="1" parent="1">
          <mxGeometry x="1051" y="285" width="90" height="30" as="geometry" />
        </mxCell>
        <mxCell id="cLgK5z_RN-ABzNowCWoc-23" style="edgeStyle=orthogonalEdgeStyle;rounded=0;orthogonalLoop=1;jettySize=auto;html=1;exitX=1;exitY=0.5;exitDx=0;exitDy=0;entryX=0;entryY=0.5;entryDx=0;entryDy=0;" edge="1" parent="1" target="cLgK5z_RN-ABzNowCWoc-28">
          <mxGeometry relative="1" as="geometry">
            <mxPoint x="220" y="300" as="sourcePoint" />
          </mxGeometry>
        </mxCell>
        <mxCell id="cLgK5z_RN-ABzNowCWoc-24" style="edgeStyle=orthogonalEdgeStyle;rounded=0;orthogonalLoop=1;jettySize=auto;html=1;exitX=1;exitY=0.5;exitDx=0;exitDy=0;entryX=0;entryY=0.5;entryDx=0;entryDy=0;" edge="1" parent="1" target="cLgK5z_RN-ABzNowCWoc-30">
          <mxGeometry relative="1" as="geometry">
            <mxPoint x="220" y="300" as="sourcePoint" />
          </mxGeometry>
        </mxCell>
        <mxCell id="cLgK5z_RN-ABzNowCWoc-44" style="edgeStyle=orthogonalEdgeStyle;rounded=0;orthogonalLoop=1;jettySize=auto;html=1;exitX=1;exitY=0.5;exitDx=0;exitDy=0;entryX=0.5;entryY=0;entryDx=0;entryDy=0;" edge="1" parent="1" source="cLgK5z_RN-ABzNowCWoc-32" target="cLgK5z_RN-ABzNowCWoc-31">
          <mxGeometry relative="1" as="geometry">
            <Array as="points">
              <mxPoint x="695" y="250" />
            </Array>
          </mxGeometry>
        </mxCell>
        <mxCell id="cLgK5z_RN-ABzNowCWoc-28" value="其他微信Appid主体下的openID" style="text;html=1;strokeColor=none;fillColor=none;align=center;verticalAlign=middle;whiteSpace=wrap;rounded=0;" vertex="1" parent="1">
          <mxGeometry x="260" y="240" width="140" height="20" as="geometry" />
        </mxCell>
        <mxCell id="cLgK5z_RN-ABzNowCWoc-29" style="edgeStyle=orthogonalEdgeStyle;rounded=0;orthogonalLoop=1;jettySize=auto;html=1;exitX=1;exitY=0.5;exitDx=0;exitDy=0;entryX=0.5;entryY=1;entryDx=0;entryDy=0;" edge="1" parent="1" source="cLgK5z_RN-ABzNowCWoc-30" target="cLgK5z_RN-ABzNowCWoc-31">
          <mxGeometry relative="1" as="geometry">
            <mxPoint x="465" y="315" as="targetPoint" />
          </mxGeometry>
        </mxCell>
        <mxCell id="cLgK5z_RN-ABzNowCWoc-30" value="心悦微信账号主体下的openID" style="text;html=1;strokeColor=none;fillColor=none;align=center;verticalAlign=middle;whiteSpace=wrap;rounded=0;" vertex="1" parent="1">
          <mxGeometry x="260" y="330" width="140" height="20" as="geometry" />
        </mxCell>
        <mxCell id="cLgK5z_RN-ABzNowCWoc-33" style="edgeStyle=orthogonalEdgeStyle;rounded=0;orthogonalLoop=1;jettySize=auto;html=1;exitX=1;exitY=0.5;exitDx=0;exitDy=0;" edge="1" parent="1" source="cLgK5z_RN-ABzNowCWoc-31" target="cLgK5z_RN-ABzNowCWoc-16">
          <mxGeometry relative="1" as="geometry" />
        </mxCell>
        <mxCell id="cLgK5z_RN-ABzNowCWoc-31" value="微信体系OpenID" style="rounded=1;whiteSpace=wrap;html=1;fillColor=#dae8fc;strokeColor=#6c8ebf;" vertex="1" parent="1">
          <mxGeometry x="640" y="285" width="110" height="30" as="geometry" />
        </mxCell>
        <mxCell id="cLgK5z_RN-ABzNowCWoc-34" style="edgeStyle=orthogonalEdgeStyle;rounded=0;orthogonalLoop=1;jettySize=auto;html=1;exitX=1;exitY=0.5;exitDx=0;exitDy=0;entryX=0;entryY=0.5;entryDx=0;entryDy=0;" edge="1" parent="1" target="cLgK5z_RN-ABzNowCWoc-39">
          <mxGeometry relative="1" as="geometry">
            <mxPoint x="220" y="455" as="sourcePoint" />
          </mxGeometry>
        </mxCell>
        <mxCell id="cLgK5z_RN-ABzNowCWoc-35" style="edgeStyle=orthogonalEdgeStyle;rounded=0;orthogonalLoop=1;jettySize=auto;html=1;exitX=1;exitY=0.5;exitDx=0;exitDy=0;entryX=0;entryY=0.5;entryDx=0;entryDy=0;" edge="1" parent="1" target="cLgK5z_RN-ABzNowCWoc-41">
          <mxGeometry relative="1" as="geometry">
            <mxPoint x="220" y="455" as="sourcePoint" />
          </mxGeometry>
        </mxCell>
        <mxCell id="cLgK5z_RN-ABzNowCWoc-39" value="其他QQ账号主体下的&lt;br&gt;openID" style="text;html=1;strokeColor=none;fillColor=none;align=center;verticalAlign=middle;whiteSpace=wrap;rounded=0;" vertex="1" parent="1">
          <mxGeometry x="260" y="395" width="140" height="20" as="geometry" />
        </mxCell>
        <mxCell id="cLgK5z_RN-ABzNowCWoc-41" value="心悦QQ账号主体下的openID" style="text;html=1;strokeColor=none;fillColor=none;align=center;verticalAlign=middle;whiteSpace=wrap;rounded=0;" vertex="1" parent="1">
          <mxGeometry x="260" y="485" width="140" height="20" as="geometry" />
        </mxCell>
        <mxCell id="cLgK5z_RN-ABzNowCWoc-32" value="心悦APP微信账号主体" style="text;html=1;strokeColor=none;fillColor=none;align=center;verticalAlign=middle;whiteSpace=wrap;rounded=0;" vertex="1" parent="1">
          <mxGeometry x="480" y="240" width="140" height="20" as="geometry" />
        </mxCell>
        <mxCell id="cLgK5z_RN-ABzNowCWoc-45" style="edgeStyle=orthogonalEdgeStyle;rounded=0;orthogonalLoop=1;jettySize=auto;html=1;exitX=1;exitY=0.5;exitDx=0;exitDy=0;entryX=0;entryY=0.5;entryDx=0;entryDy=0;" edge="1" parent="1" source="cLgK5z_RN-ABzNowCWoc-28" target="cLgK5z_RN-ABzNowCWoc-32">
          <mxGeometry relative="1" as="geometry">
            <mxPoint x="400" y="250" as="sourcePoint" />
            <mxPoint x="695" y="285" as="targetPoint" />
            <Array as="points" />
          </mxGeometry>
        </mxCell>
        <mxCell id="cLgK5z_RN-ABzNowCWoc-46" style="edgeStyle=orthogonalEdgeStyle;rounded=0;orthogonalLoop=1;jettySize=auto;html=1;exitX=1;exitY=0.5;exitDx=0;exitDy=0;entryX=0.5;entryY=0;entryDx=0;entryDy=0;" edge="1" parent="1" source="cLgK5z_RN-ABzNowCWoc-52" target="cLgK5z_RN-ABzNowCWoc-48">
          <mxGeometry relative="1" as="geometry">
            <Array as="points">
              <mxPoint x="685" y="405" />
            </Array>
          </mxGeometry>
        </mxCell>
        <mxCell id="cLgK5z_RN-ABzNowCWoc-51" value="&lt;span style=&quot;color: rgba(0 , 0 , 0 , 0) ; font-family: monospace ; font-size: 0px ; background-color: rgb(248 , 249 , 250)&quot;&gt;%3CmxGraphModel%3E%3Croot%3E%3CmxCell%20id%3D%220%22%2F%3E%3CmxCell%20id%3D%221%22%20parent%3D%220%22%2F%3E%3CmxCell%20id%3D%222%22%20value%3D%22%E5%BF%83%E6%82%A6QQ%E8%B4%A6%E5%8F%B7%E4%B8%BB%E4%BD%93101484782%22%20style%3D%22text%3Bhtml%3D1%3BstrokeColor%3Dnone%3BfillColor%3Dnone%3Balign%3Dcenter%3BverticalAlign%3Dmiddle%3BwhiteSpace%3Dwrap%3Brounded%3D0%3B%22%20vertex%3D%221%22%20parent%3D%221%22%3E%3CmxGeometry%20x%3D%22520%22%20y%3D%22120%22%20width%3D%22100%22%20height%3D%2220%22%20as%3D%22geometry%22%2F%3E%3C%2FmxCell%3E%3C%2Froot%3E%3C%2FmxGraphModel%3E&lt;/span&gt;&lt;span style=&quot;color: rgba(0 , 0 , 0 , 0) ; font-family: monospace ; font-size: 0px ; background-color: rgb(248 , 249 , 250)&quot;&gt;%3CmxGraphModel%3E%3Croot%3E%3CmxCell%20id%3D%220%22%2F%3E%3CmxCell%20id%3D%221%22%20parent%3D%220%22%2F%3E%3CmxCell%20id%3D%222%22%20value%3D%22%E5%BF%83%E6%82%A6QQ%E8%B4%A6%E5%8F%B7%E4%B8%BB%E4%BD%93101484782%22%20style%3D%22text%3Bhtml%3D1%3BstrokeColor%3Dnone%3BfillColor%3Dnone%3Balign%3Dcenter%3BverticalAlign%3Dmiddle%3BwhiteSpace%3Dwrap%3Brounded%3D0%3B%22%20vertex%3D%221%22%20parent%3D%221%22%3E%3CmxGeometry%20x%3D%22520%22%20y%3D%22120%22%20width%3D%22100%22%20height%3D%2220%22%20as%3D%22geometry%22%2F%3E%3C%2FmxCell%3E%3C%2Froot%3E%3C%2FmxGraphModel%3E&lt;/span&gt;" style="edgeLabel;html=1;align=center;verticalAlign=middle;resizable=0;points=[];" vertex="1" connectable="0" parent="cLgK5z_RN-ABzNowCWoc-46">
          <mxGeometry x="-0.254" y="-1" relative="1" as="geometry">
            <mxPoint as="offset" />
          </mxGeometry>
        </mxCell>
        <mxCell id="cLgK5z_RN-ABzNowCWoc-47" style="edgeStyle=orthogonalEdgeStyle;rounded=0;orthogonalLoop=1;jettySize=auto;html=1;entryX=0.5;entryY=1;entryDx=0;entryDy=0;" edge="1" parent="1" target="cLgK5z_RN-ABzNowCWoc-48" source="cLgK5z_RN-ABzNowCWoc-41">
          <mxGeometry relative="1" as="geometry">
            <mxPoint x="430" y="490" as="sourcePoint" />
            <mxPoint x="455" y="470" as="targetPoint" />
          </mxGeometry>
        </mxCell>
        <mxCell id="cLgK5z_RN-ABzNowCWoc-56" style="edgeStyle=orthogonalEdgeStyle;rounded=0;orthogonalLoop=1;jettySize=auto;html=1;exitX=1;exitY=0.5;exitDx=0;exitDy=0;" edge="1" parent="1" source="cLgK5z_RN-ABzNowCWoc-48" target="cLgK5z_RN-ABzNowCWoc-16">
          <mxGeometry relative="1" as="geometry" />
        </mxCell>
        <mxCell id="cLgK5z_RN-ABzNowCWoc-48" value="QQ体系OpenID" style="rounded=1;whiteSpace=wrap;html=1;fillColor=#dae8fc;strokeColor=#6c8ebf;" vertex="1" parent="1">
          <mxGeometry x="630" y="440" width="110" height="30" as="geometry" />
        </mxCell>
        <mxCell id="cLgK5z_RN-ABzNowCWoc-50" style="edgeStyle=orthogonalEdgeStyle;rounded=0;orthogonalLoop=1;jettySize=auto;html=1;entryX=0;entryY=0.5;entryDx=0;entryDy=0;exitX=1;exitY=0.5;exitDx=0;exitDy=0;" edge="1" parent="1" source="cLgK5z_RN-ABzNowCWoc-39">
          <mxGeometry relative="1" as="geometry">
            <mxPoint x="430" y="410" as="sourcePoint" />
            <mxPoint x="420" y="405" as="targetPoint" />
            <Array as="points" />
          </mxGeometry>
        </mxCell>
        <mxCell id="cLgK5z_RN-ABzNowCWoc-52" value="&lt;span style=&quot;color: rgb(0 , 0 , 0) ; font-family: &amp;#34;helvetica&amp;#34; ; font-size: 12px ; font-style: normal ; font-weight: 400 ; letter-spacing: normal ; text-indent: 0px ; text-transform: none ; word-spacing: 0px ; background-color: rgb(248 , 249 , 250) ; display: inline ; float: none&quot;&gt;心悦QQ账号主体&lt;/span&gt;" style="text;whiteSpace=wrap;html=1;align=center;verticalAlign=middle;" vertex="1" parent="1">
          <mxGeometry x="550" y="395" width="100" height="20" as="geometry" />
        </mxCell>
        <mxCell id="cLgK5z_RN-ABzNowCWoc-53" style="edgeStyle=orthogonalEdgeStyle;rounded=0;orthogonalLoop=1;jettySize=auto;html=1;exitX=1;exitY=0.5;exitDx=0;exitDy=0;entryX=0;entryY=0.5;entryDx=0;entryDy=0;" edge="1" parent="1" target="cLgK5z_RN-ABzNowCWoc-52">
          <mxGeometry relative="1" as="geometry">
            <Array as="points" />
            <mxPoint x="510" y="405" as="sourcePoint" />
            <mxPoint x="685" y="440" as="targetPoint" />
          </mxGeometry>
        </mxCell>
        <mxCell id="cLgK5z_RN-ABzNowCWoc-54" value="&lt;span style=&quot;color: rgba(0 , 0 , 0 , 0) ; font-family: monospace ; font-size: 0px ; background-color: rgb(248 , 249 , 250)&quot;&gt;%3CmxGraphModel%3E%3Croot%3E%3CmxCell%20id%3D%220%22%2F%3E%3CmxCell%20id%3D%221%22%20parent%3D%220%22%2F%3E%3CmxCell%20id%3D%222%22%20value%3D%22%E5%BF%83%E6%82%A6QQ%E8%B4%A6%E5%8F%B7%E4%B8%BB%E4%BD%93101484782%22%20style%3D%22text%3Bhtml%3D1%3BstrokeColor%3Dnone%3BfillColor%3Dnone%3Balign%3Dcenter%3BverticalAlign%3Dmiddle%3BwhiteSpace%3Dwrap%3Brounded%3D0%3B%22%20vertex%3D%221%22%20parent%3D%221%22%3E%3CmxGeometry%20x%3D%22520%22%20y%3D%22120%22%20width%3D%22100%22%20height%3D%2220%22%20as%3D%22geometry%22%2F%3E%3C%2FmxCell%3E%3C%2Froot%3E%3C%2FmxGraphModel%3E&lt;/span&gt;&lt;span style=&quot;color: rgba(0 , 0 , 0 , 0) ; font-family: monospace ; font-size: 0px ; background-color: rgb(248 , 249 , 250)&quot;&gt;%3CmxGraphModel%3E%3Croot%3E%3CmxCell%20id%3D%220%22%2F%3E%3CmxCell%20id%3D%221%22%20parent%3D%220%22%2F%3E%3CmxCell%20id%3D%222%22%20value%3D%22%E5%BF%83%E6%82%A6QQ%E8%B4%A6%E5%8F%B7%E4%B8%BB%E4%BD%93101484782%22%20style%3D%22text%3Bhtml%3D1%3BstrokeColor%3Dnone%3BfillColor%3Dnone%3Balign%3Dcenter%3BverticalAlign%3Dmiddle%3BwhiteSpace%3Dwrap%3Brounded%3D0%3B%22%20vertex%3D%221%22%20parent%3D%221%22%3E%3CmxGeometry%20x%3D%22520%22%20y%3D%22120%22%20width%3D%22100%22%20height%3D%2220%22%20as%3D%22geometry%22%2F%3E%3C%2FmxCell%3E%3C%2Froot%3E%3C%2FmxGraphModel%3E&lt;/span&gt;" style="edgeLabel;html=1;align=center;verticalAlign=middle;resizable=0;points=[];" vertex="1" connectable="0" parent="cLgK5z_RN-ABzNowCWoc-53">
          <mxGeometry x="-0.254" y="-1" relative="1" as="geometry">
            <mxPoint as="offset" />
          </mxGeometry>
        </mxCell>
        <mxCell id="cLgK5z_RN-ABzNowCWoc-55" value="QQ号" style="rounded=1;whiteSpace=wrap;html=1;fillColor=#f5f5f5;strokeColor=#666666;fontColor=#333333;" vertex="1" parent="1">
          <mxGeometry x="420" y="390" width="90" height="30" as="geometry" />
        </mxCell>
        <mxCell id="cLgK5z_RN-ABzNowCWoc-59" style="edgeStyle=orthogonalEdgeStyle;rounded=0;orthogonalLoop=1;jettySize=auto;html=1;exitX=0.5;exitY=1;exitDx=0;exitDy=0;entryX=0.5;entryY=0;entryDx=0;entryDy=0;" edge="1" parent="1" source="cLgK5z_RN-ABzNowCWoc-57" target="cLgK5z_RN-ABzNowCWoc-17">
          <mxGeometry relative="1" as="geometry" />
        </mxCell>
        <mxCell id="cLgK5z_RN-ABzNowCWoc-57" value="心悦QQ账号主体&lt;br&gt;心悦APP微信账号主体" style="text;html=1;strokeColor=none;fillColor=none;align=center;verticalAlign=middle;whiteSpace=wrap;rounded=0;" vertex="1" parent="1">
          <mxGeometry x="915" y="205" width="140" height="35" as="geometry" />
        </mxCell>
        <mxCell id="cLgK5z_RN-ABzNowCWoc-60" style="edgeStyle=orthogonalEdgeStyle;rounded=0;orthogonalLoop=1;jettySize=auto;html=1;exitX=0.5;exitY=1;exitDx=0;exitDy=0;" edge="1" parent="1" source="cLgK5z_RN-ABzNowCWoc-58" target="cLgK5z_RN-ABzNowCWoc-19">
          <mxGeometry relative="1" as="geometry" />
        </mxCell>
        <mxCell id="cLgK5z_RN-ABzNowCWoc-58" value="QC&lt;br&gt;WX" style="text;html=1;strokeColor=none;fillColor=none;align=center;verticalAlign=middle;whiteSpace=wrap;rounded=0;" vertex="1" parent="1">
          <mxGeometry x="1064" y="210" width="64" height="30" as="geometry" />
        </mxCell>
        <mxCell id="cLgK5z_RN-ABzNowCWoc-61" value="QQ体系OpenID" style="rounded=1;whiteSpace=wrap;html=1;fillColor=#dae8fc;strokeColor=#6c8ebf;" vertex="1" parent="1">
          <mxGeometry x="640" y="135" width="110" height="30" as="geometry" />
        </mxCell>
      </root>
    </mxGraphModel>
  </diagram>
</mxfile>
